<?xml version="1.0" encoding="utf-8"?>
<!-- Generator: Adobe Illustrator 15.1.0, SVG Export Plug-In  -->
<!DOCTYPE svg PUBLIC "-//W3C//DTD SVG 1.1//EN" "http://www.w3.org/Graphics/SVG/1.1/DTD/svg11.dtd" [
	<!ENTITY ns_flows "http://ns.adobe.com/Flows/1.0/">
]>
<svg version="1.1"
	 xmlns="http://www.w3.org/2000/svg" xmlns:xlink="http://www.w3.org/1999/xlink" xmlns:a="http://ns.adobe.com/AdobeSVGViewerExtensions/3.0/"
	 x="0px" y="0px" width="602px" height="166px" viewBox="-0.9 -0.665 602 166"
	 overflow="visible" enable-background="new -0.9 -0.665 602 166" xml:space="preserve">
<defs>
</defs>
<line fill="#00A73C" stroke="#00A73C" stroke-width="2" x1="10.1" y1="80.352" x2="599.849" y2="80.047"/>
<ellipse fill="#FDE7C6" stroke="#00A73C" cx="10.1" cy="79.352" rx="9.6" ry="10.199"/>
<ellipse fill="#FDE7C6" stroke="#00A73C" cx="58.249" cy="79.375" rx="9.6" ry="10.199"/>
<ellipse fill="#FDE7C6" stroke="#00A73C" cx="105.249" cy="79.375" rx="9.6" ry="10.199"/>
<ellipse fill="#FDE7C6" stroke="#00A73C" cx="395.248" cy="79.376" rx="9.6" ry="10.199"/>
<ellipse fill="#FDE7C6" stroke="#00A73C" cx="154.249" cy="79.375" rx="9.6" ry="10.199"/>
<ellipse fill="#FDE7C6" stroke="#00A73C" cx="298.248" cy="79.375" rx="9.599" ry="10.199"/>
<ellipse fill="#FDE7C6" stroke="#00A73C" cx="251.249" cy="79.375" rx="9.6" ry="10.199"/>
<ellipse fill="#FDE7C6" stroke="#00A73C" cx="347.248" cy="79.375" rx="9.6" ry="10.199"/>
<ellipse fill="#FDE7C6" stroke="#00A73C" cx="442.248" cy="79.375" rx="9.6" ry="10.199"/>
<ellipse fill="#FDE7C6" stroke="#00A73C" cx="489.248" cy="79.375" rx="9.6" ry="10.199"/>
<ellipse fill="#FDE7C6" stroke="#00A73C" cx="539.248" cy="79.375" rx="9.6" ry="10.199"/>
<path d="M13.514,83.375l-0.938-2.484H8.545l-1.031,2.484H6.436l3.703-9.094h1.219l3.422,9.094H13.514z M8.92,79.953h3.281
	l-1.594-4.219L8.92,79.953z"/>
<path d="M56.514,83.375l-0.938-2.484h-4.031l-1.031,2.484h-1.078l3.703-9.094h1.219l3.422,9.094H56.514z M51.92,79.953h3.281
	l-1.594-4.219L51.92,79.953z"/>
<path d="M61.858,83.375l0.656-2.391h-2.203l-0.656,2.391h-0.844l0.609-2.391h-1.078v-0.844h1.312l0.656-2.484h-1.969v-0.844h2.203
	l0.703-2.531h0.844l-0.703,2.531h2.25l0.656-2.531h0.891l-0.703,2.531h1.125v0.844h-1.359l-0.656,2.484h2.016v0.844h-2.25
	l-0.656,2.391H61.858z M62.749,80.141l0.656-2.484h-2.203l-0.656,2.484H62.749z"/>
<path d="M107.217,78.594c0.718,0.125,1.234,0.406,1.547,0.844c0.312,0.406,0.469,0.891,0.469,1.453c0,0.469-0.141,0.922-0.422,1.359
	c-0.281,0.406-0.641,0.688-1.078,0.844c-0.407,0.188-1.047,0.281-1.922,0.281h-2.719v-9.094h2.438c0.968,0,1.656,0.047,2.062,0.141
	c0.437,0.157,0.75,0.375,0.938,0.656c0.218,0.312,0.328,0.703,0.328,1.172C108.858,77.25,108.311,78.031,107.217,78.594z
	 M105.811,75.219h-1.5v3h1.125c0.687,0,1.25-0.171,1.688-0.516c0.375-0.344,0.562-0.766,0.562-1.266
	c0-0.375-0.141-0.672-0.422-0.891C107.045,75.329,106.561,75.219,105.811,75.219z M105.155,79.156h-0.844v3.328h1.641
	c0.75,0,1.281-0.141,1.594-0.422c0.312-0.218,0.469-0.578,0.469-1.078c0-0.593-0.234-1.047-0.703-1.359
	C106.811,79.313,106.092,79.156,105.155,79.156z"/>
<path d="M156.53,81.406h1.078c0,0.5-0.188,0.969-0.562,1.406c-0.5,0.562-1.266,0.844-2.297,0.844c-1.157,0-2.094-0.406-2.812-1.219
	c-0.75-0.812-1.125-2.016-1.125-3.609c0-1.625,0.375-2.828,1.125-3.609c0.718-0.812,1.656-1.219,2.812-1.219
	c1,0,1.734,0.234,2.203,0.703c0.437,0.532,0.656,1.047,0.656,1.547h-1.078c0-0.438-0.141-0.766-0.422-0.984
	c-0.313-0.218-0.75-0.328-1.312-0.328c-0.813,0-1.453,0.266-1.922,0.797c-0.562,0.75-0.844,1.781-0.844,3.094
	c0,1.344,0.281,2.375,0.844,3.094c0.469,0.562,1.093,0.844,1.875,0.844c0.562,0,1.015-0.125,1.359-0.375
	C156.389,82.141,156.53,81.812,156.53,81.406z"/>
<ellipse fill="#FDE7C6" stroke="#00A73C" cx="202.249" cy="79.375" rx="9.6" ry="10.199"/>
<path d="M200.53,81.406h1.078c0,0.5-0.188,0.969-0.562,1.406c-0.5,0.562-1.266,0.844-2.297,0.844c-1.157,0-2.094-0.406-2.812-1.219
	c-0.75-0.812-1.125-2.016-1.125-3.609c0-1.625,0.375-2.828,1.125-3.609c0.718-0.812,1.656-1.219,2.812-1.219
	c1,0,1.734,0.234,2.203,0.703c0.437,0.532,0.656,1.047,0.656,1.547h-1.078c0-0.438-0.141-0.766-0.422-0.984
	c-0.313-0.218-0.75-0.328-1.312-0.328c-0.813,0-1.453,0.266-1.922,0.797c-0.562,0.75-0.844,1.781-0.844,3.094
	c0,1.344,0.281,2.375,0.844,3.094c0.469,0.562,1.093,0.844,1.875,0.844c0.562,0,1.015-0.125,1.359-0.375
	C200.389,82.141,200.53,81.812,200.53,81.406z"/>
<path d="M205.967,83.375l0.656-2.391h-2.203l-0.656,2.391h-0.844l0.609-2.391h-1.078v-0.844h1.312l0.656-2.484h-1.969v-0.844h2.203
	l0.703-2.531h0.844l-0.703,2.531h2.25l0.656-2.531h0.891l-0.703,2.531h1.125v0.844h-1.359l-0.656,2.484h2.016v0.844h-2.25
	l-0.656,2.391H205.967z M206.858,80.141l0.656-2.484h-2.203l-0.656,2.484H206.858z"/>
<path d="M251.764,83.375h-2.672v-9.094h2.531c1.437,0,2.453,0.25,3.047,0.75c0.968,0.781,1.453,2.032,1.453,3.75
	c0,1.719-0.5,2.984-1.5,3.797C253.998,83.11,253.045,83.375,251.764,83.375z M251.67,75.219h-1.359v7.172h1.359
	c1.125,0,1.937-0.281,2.438-0.844c0.5-0.5,0.75-1.39,0.75-2.672c0-1.437-0.297-2.453-0.891-3.047
	C253.561,75.422,252.795,75.219,251.67,75.219z"/>
<path d="M293.764,83.375h-2.672v-9.094h2.531c1.437,0,2.453,0.25,3.047,0.75c0.968,0.781,1.453,2.032,1.453,3.75
	c0,1.719-0.5,2.984-1.5,3.797C295.998,83.11,295.045,83.375,293.764,83.375z M293.67,75.219h-1.359v7.172h1.359
	c1.125,0,1.937-0.281,2.438-0.844c0.5-0.5,0.75-1.39,0.75-2.672c0-1.437-0.297-2.453-0.891-3.047
	C295.561,75.422,294.795,75.219,293.67,75.219z"/>
<path d="M302.53,83.375l0.656-2.391h-2.203l-0.656,2.391h-0.844l0.609-2.391h-1.078v-0.844h1.312l0.656-2.484h-1.969v-0.844h2.203
	l0.703-2.531h0.844l-0.703,2.531h2.25l0.656-2.531h0.89l-0.703,2.531h1.125v0.844h-1.359l-0.656,2.484h2.015v0.844h-2.25
	l-0.656,2.391H302.53z M303.42,80.141l0.656-2.484h-2.203l-0.656,2.484H303.42z"/>
<path d="M346.311,82.391h4.266v0.984h-5.484v-9.094h5.156v0.984h-3.938v2.906h3.422v0.891h-3.422V82.391z"/>
<path d="M397.732,79.344h-3.422v4.031h-1.219v-9.094h5.156v0.984h-3.938v3.141h3.422V79.344z"/>
<path d="M441.732,79.344h-3.422v4.031h-1.219v-9.094h5.156v0.984h-3.938v3.141h3.422V79.344z"/>
<path d="M446.795,83.375l0.656-2.391h-2.203l-0.656,2.391h-0.844l0.609-2.391h-1.078v-0.844h1.312l0.656-2.484h-1.969v-0.844h2.203
	l0.703-2.531h0.844l-0.703,2.531h2.25l0.656-2.531h0.891l-0.703,2.531h1.125v0.844h-1.359l-0.656,2.484h2.016v0.844h-2.25
	l-0.656,2.391H446.795z M447.686,80.141l0.656-2.484h-2.203l-0.656,2.484H447.686z"/>
<path d="M489.467,79.766v-0.891h3.141v4.078c-0.969,0.469-1.891,0.703-2.766,0.703c-1.219,0-2.188-0.406-2.906-1.219
	c-0.75-0.812-1.125-1.984-1.125-3.516c0-1.406,0.266-2.515,0.797-3.328c0.688-1.062,1.703-1.594,3.047-1.594
	c0.938,0,1.672,0.219,2.203,0.656c0.5,0.469,0.75,0.969,0.75,1.5h-1.078c0-0.344-0.156-0.625-0.469-0.844
	c-0.344-0.25-0.781-0.375-1.312-0.375c-0.781,0-1.438,0.312-1.969,0.938c-0.5,0.594-0.75,1.578-0.75,2.953
	c0,1.344,0.266,2.328,0.797,2.953c0.531,0.656,1.172,0.984,1.922,0.984c0.375,0,0.969-0.125,1.781-0.375v-2.625H489.467z"/>
<ellipse fill="#FDE7C6" stroke="#00A73C" cx="590.5" cy="80.375" rx="9.6" ry="10.199"/>
<path d="M535.719,79.766v-0.891h3.141v4.078c-0.969,0.469-1.891,0.703-2.766,0.703c-1.219,0-2.188-0.406-2.906-1.219
	c-0.75-0.812-1.125-1.984-1.125-3.516c0-1.406,0.266-2.515,0.797-3.328c0.688-1.062,1.703-1.594,3.047-1.594
	c0.938,0,1.672,0.219,2.203,0.656c0.5,0.469,0.75,0.969,0.75,1.5h-1.078c0-0.344-0.156-0.625-0.469-0.844
	c-0.344-0.25-0.781-0.375-1.312-0.375c-0.781,0-1.438,0.312-1.969,0.938c-0.5,0.594-0.75,1.578-0.75,2.953
	c0,1.344,0.266,2.328,0.797,2.953c0.531,0.656,1.172,0.984,1.922,0.984c0.375,0,0.969-0.125,1.781-0.375v-2.625H535.719z"/>
<path d="M543.5,83.375l0.656-2.391h-2.203l-0.656,2.391h-0.844l0.609-2.391h-1.078v-0.844h1.312l0.656-2.484h-1.969v-0.844h2.203
	l0.703-2.531h0.844l-0.703,2.531h2.25l0.656-2.531h0.891l-0.703,2.531h1.125v0.844h-1.359l-0.656,2.484h2.016v0.844H545
	l-0.656,2.391H543.5z M544.391,80.141l0.656-2.484h-2.203l-0.656,2.484H544.391z"/>
<path d="M593.766,84.375l-0.938-2.484h-4.031l-1.031,2.484h-1.078l3.703-9.094h1.219l3.422,9.094H593.766z M589.172,80.953h3.281
	l-1.594-4.219L589.172,80.953z"/>
<polyline fill="none" stroke="#000000" points="8.167,94.042 8.167,107.375 591.5,107.375 590.834,92.708 "/>
<polyline fill="none" stroke="#000000" points="9.167,65.375 9.167,53.375 55.167,53.375 55.167,65.375 "/>
<polyline fill="none" stroke="#000000" points="57.834,65.042 57.834,53.042 103.834,53.042 103.834,65.042 "/>
<polyline fill="none" stroke="#000000" points="106.5,65.042 106.5,53.042 152.5,53.042 152.5,65.042 "/>
<polyline fill="none" stroke="#000000" points="155.167,65.042 155.167,53.042 201.167,53.042 201.167,65.042 "/>
<polyline fill="none" stroke="#000000" points="203.167,65.042 203.167,53.042 249.167,53.042 249.167,65.042 "/>
<polyline fill="none" stroke="#000000" points="251.167,65.042 251.167,53.042 297.167,53.042 297.167,65.042 "/>
<polyline fill="none" stroke="#000000" points="299.167,65.042 299.167,53.042 345.167,53.042 345.167,65.042 "/>
<polyline fill="none" stroke="#000000" points="347.167,65.042 347.167,53.042 393.167,53.042 393.167,65.042 "/>
<polyline fill="none" stroke="#000000" points="395.167,65.043 395.167,53.043 441.167,53.043 441.167,65.043 "/>
<polyline fill="none" stroke="#000000" points="443.833,65.043 443.833,53.043 489.833,53.043 489.833,65.043 "/>
<polyline fill="none" stroke="#000000" points="492.167,65.043 492.167,53.043 538.167,53.043 538.167,65.043 "/>
<polyline fill="none" stroke="#000000" points="540.834,65.043 540.834,53.043 586.834,53.043 586.834,65.043 "/>
<path d="M22.323,40.542l0.562-0.609l3.281,3.234l3.281-3.281l0.609,0.656l-3.234,3.281l3.234,3.281l-0.609,0.656l-3.281-3.328
	l-3.281,3.328l-0.609-0.656l3.281-3.281L22.323,40.542z"/>
<path d="M33.541,35.889h0.809v6.82h-0.809v-5.977l-1.371,0.562v-0.773L33.541,35.889z"/>
<path d="M38.462,41.971h3.551v0.738h-4.395v-0.738c0-0.304,0.082-0.609,0.246-0.914c0.164-0.352,0.339-0.645,0.527-0.879
	c0.211-0.258,0.609-0.598,1.195-1.02c0.633-0.492,1.031-0.855,1.195-1.09c0.141-0.258,0.211-0.492,0.211-0.703
	c0-0.258-0.105-0.492-0.316-0.703c-0.258-0.188-0.575-0.281-0.949-0.281c-0.375,0-0.656,0.07-0.844,0.211
	c-0.188,0.141-0.281,0.316-0.281,0.527h-0.809c0-0.375,0.176-0.715,0.527-1.02c0.352-0.281,0.832-0.422,1.441-0.422
	c0.773,0,1.312,0.153,1.617,0.457c0.328,0.329,0.492,0.738,0.492,1.23c0,0.375-0.105,0.727-0.316,1.055
	c-0.211,0.281-0.715,0.703-1.512,1.266c-1.055,0.727-1.582,1.43-1.582,2.109V41.971z"/>
<path d="M43.492,46.28l3.719-10.828h6.234v0.602h-5.742l-4.484,12.961l-1.805-4.32l-1.039,0.875l-0.383-0.602l2.133-1.75
	L43.492,46.28z"/>
<path d="M50.323,47.059h4.734v0.984h-5.859v-0.984c0-0.406,0.109-0.812,0.328-1.219c0.218-0.469,0.453-0.859,0.703-1.172
	c0.281-0.344,0.812-0.797,1.594-1.359c0.844-0.656,1.375-1.141,1.594-1.453c0.188-0.344,0.281-0.656,0.281-0.938
	c0-0.344-0.141-0.656-0.422-0.938c-0.344-0.25-0.766-0.375-1.266-0.375c-0.5,0-0.875,0.094-1.125,0.281
	c-0.25,0.188-0.375,0.422-0.375,0.703h-1.078c0-0.5,0.234-0.953,0.703-1.359c0.469-0.375,1.109-0.562,1.922-0.562
	c1.031,0,1.75,0.204,2.156,0.609c0.437,0.438,0.656,0.984,0.656,1.641c0,0.5-0.141,0.969-0.422,1.406
	c-0.281,0.375-0.954,0.938-2.016,1.688c-1.406,0.969-2.109,1.906-2.109,2.812V47.059z"/>
<path d="M74.982,40.291l0.562-0.609l3.281,3.234l3.281-3.281l0.609,0.656l-3.234,3.281l3.234,3.281l-0.609,0.656l-3.281-3.328
	l-3.281,3.328l-0.609-0.656l3.281-3.281L74.982,40.291z"/>
<path d="M86.2,35.638h0.809v6.82H86.2v-5.977l-1.371,0.562v-0.773L86.2,35.638z"/>
<path d="M91.122,41.72h3.551v0.738h-4.395V41.72c0-0.304,0.082-0.609,0.246-0.914c0.164-0.352,0.339-0.645,0.527-0.879
	c0.211-0.258,0.609-0.598,1.195-1.02c0.633-0.492,1.031-0.855,1.195-1.09c0.141-0.258,0.211-0.492,0.211-0.703
	c0-0.258-0.105-0.492-0.316-0.703c-0.258-0.188-0.575-0.281-0.949-0.281c-0.375,0-0.656,0.07-0.844,0.211
	c-0.188,0.141-0.281,0.316-0.281,0.527h-0.809c0-0.375,0.176-0.715,0.527-1.02c0.352-0.281,0.832-0.422,1.441-0.422
	c0.773,0,1.312,0.153,1.617,0.457c0.328,0.329,0.492,0.738,0.492,1.23c0,0.375-0.105,0.727-0.316,1.055
	c-0.211,0.281-0.715,0.703-1.512,1.266c-1.055,0.727-1.582,1.43-1.582,2.109V41.72z"/>
<path d="M96.152,46.029l3.719-10.828h6.234v0.602h-5.742l-4.484,12.961l-1.805-4.32l-1.039,0.875l-0.383-0.602l2.133-1.75
	L96.152,46.029z"/>
<path d="M102.982,46.808h4.734v0.984h-5.859v-0.984c0-0.406,0.109-0.812,0.328-1.219c0.218-0.469,0.453-0.859,0.703-1.172
	c0.281-0.344,0.812-0.797,1.594-1.359c0.844-0.656,1.375-1.141,1.594-1.453c0.188-0.344,0.281-0.656,0.281-0.938
	c0-0.344-0.141-0.656-0.422-0.938c-0.344-0.25-0.766-0.375-1.266-0.375c-0.5,0-0.875,0.094-1.125,0.281
	c-0.25,0.188-0.375,0.422-0.375,0.703h-1.078c0-0.5,0.234-0.953,0.703-1.359c0.469-0.375,1.109-0.562,1.922-0.562
	c1.031,0,1.75,0.204,2.156,0.609c0.438,0.438,0.656,0.984,0.656,1.641c0,0.5-0.141,0.969-0.422,1.406
	c-0.281,0.375-0.954,0.938-2.016,1.688c-1.406,0.969-2.109,1.906-2.109,2.812V46.808z"/>
<path d="M120.982,40.958l0.562-0.609l3.281,3.234l3.281-3.281l0.609,0.656l-3.234,3.281l3.234,3.281l-0.609,0.656l-3.281-3.328
	l-3.281,3.328l-0.609-0.656l3.281-3.281L120.982,40.958z"/>
<path d="M132.2,36.305h0.809v6.82H132.2v-5.977l-1.371,0.562v-0.773L132.2,36.305z"/>
<path d="M137.122,42.387h3.551v0.738h-4.395v-0.738c0-0.304,0.082-0.609,0.246-0.914c0.164-0.352,0.339-0.645,0.527-0.879
	c0.211-0.258,0.609-0.598,1.195-1.02c0.633-0.492,1.031-0.855,1.195-1.09c0.141-0.258,0.211-0.492,0.211-0.703
	c0-0.258-0.105-0.492-0.316-0.703c-0.258-0.188-0.575-0.281-0.949-0.281c-0.375,0-0.656,0.07-0.844,0.211
	c-0.188,0.141-0.281,0.316-0.281,0.527h-0.809c0-0.375,0.176-0.715,0.527-1.02c0.352-0.281,0.832-0.422,1.441-0.422
	c0.773,0,1.312,0.153,1.617,0.457c0.328,0.329,0.492,0.738,0.492,1.23c0,0.375-0.105,0.727-0.316,1.055
	c-0.211,0.281-0.715,0.703-1.512,1.266c-1.055,0.727-1.582,1.43-1.582,2.109V42.387z"/>
<path d="M142.151,46.696l3.719-10.828h6.234v0.602h-5.742l-4.484,12.961l-1.805-4.32l-1.039,0.875l-0.383-0.602l2.133-1.75
	L142.151,46.696z"/>
<path d="M148.982,47.475h4.734v0.984h-5.859v-0.984c0-0.406,0.109-0.812,0.328-1.219c0.218-0.469,0.453-0.859,0.703-1.172
	c0.281-0.344,0.812-0.797,1.594-1.359c0.844-0.656,1.375-1.141,1.594-1.453c0.188-0.344,0.281-0.656,0.281-0.938
	c0-0.344-0.141-0.656-0.422-0.938c-0.344-0.25-0.766-0.375-1.266-0.375c-0.5,0-0.875,0.094-1.125,0.281
	c-0.25,0.188-0.375,0.422-0.375,0.703h-1.078c0-0.5,0.234-0.953,0.703-1.359c0.469-0.375,1.109-0.562,1.922-0.562
	c1.031,0,1.75,0.204,2.156,0.609c0.437,0.438,0.656,0.984,0.656,1.641c0,0.5-0.141,0.969-0.422,1.406
	c-0.281,0.375-0.954,0.938-2.016,1.688c-1.406,0.969-2.109,1.906-2.109,2.812V47.475z"/>
<path d="M167.406,43.108v-1.531l0.438-0.438h1.531l0.438,0.438v1.531l-0.438,0.438h-1.531L167.406,43.108z"/>
<path d="M181.406,43.108v-1.531l0.438-0.438h1.531l0.438,0.438v1.531l-0.438,0.438h-1.531L181.406,43.108z"/>
<path d="M195.406,43.108v-1.531l0.438-0.438h1.531l0.438,0.438v1.531l-0.438,0.438h-1.531L195.406,43.108z"/>
<path d="M345.649,120.291l0.562-0.609l3.281,3.234l3.281-3.281l0.609,0.656l-3.234,3.281l3.234,3.281l-0.609,0.656l-3.281-3.328
	l-3.281,3.328l-0.609-0.656l3.281-3.281L345.649,120.291z"/>
<path d="M360.061,128.982h7.102v1.477h-8.789v-1.477c0-0.608,0.164-1.219,0.492-1.828c0.327-0.703,0.679-1.289,1.055-1.758
	c0.422-0.516,1.219-1.195,2.391-2.039c1.266-0.984,2.062-1.711,2.391-2.18c0.281-0.516,0.422-0.984,0.422-1.406
	c0-0.516-0.211-0.984-0.633-1.406c-0.517-0.375-1.149-0.562-1.898-0.562c-0.75,0-1.312,0.141-1.688,0.422
	c-0.376,0.281-0.562,0.633-0.562,1.055h-1.617c0-0.749,0.352-1.43,1.055-2.039c0.703-0.562,1.663-0.844,2.883-0.844
	c1.547,0,2.625,0.306,3.234,0.914c0.656,0.657,0.984,1.477,0.984,2.461c0,0.75-0.211,1.453-0.633,2.109
	c-0.422,0.562-1.431,1.406-3.023,2.531c-2.109,1.453-3.164,2.859-3.164,4.219V128.982z"/>
<path fill="#E60012" d="M9.086,119.109v1.039H7.609v3.227H6.352v-3.227H1.266v-1.039l5.086-6.344h1.258v6.344H9.086z M6.352,119.109
	v-4.648l-3.719,4.648H6.352z"/>
<path fill="#E60012" d="M18.438,119.109v1.039h-1.477v3.227h-1.258v-3.227h-5.086v-1.039l5.086-6.344h1.258v6.344H18.438z
	 M15.703,119.109v-4.648l-3.719,4.648H15.703z"/>
<path fill="#E60012" d="M23.852,123.703c-1.058,0-1.969-0.474-2.734-1.422c-0.766-0.947-1.148-2.352-1.148-4.211
	c0-1.896,0.383-3.299,1.148-4.211c0.766-0.947,1.677-1.422,2.734-1.422c1.057,0,1.969,0.475,2.734,1.422
	c0.766,0.912,1.148,2.315,1.148,4.211c0,1.859-0.383,3.264-1.148,4.211C25.82,123.229,24.909,123.703,23.852,123.703z
	 M23.852,122.609c0.838,0,1.477-0.438,1.914-1.312c0.438-0.838,0.656-1.914,0.656-3.227s-0.219-2.406-0.656-3.281
	c-0.438-0.838-1.076-1.258-1.914-1.258c-0.839,0-1.458,0.42-1.859,1.258c-0.438,0.875-0.656,1.969-0.656,3.281
	s0.219,2.389,0.656,3.227C22.393,122.172,23.013,122.609,23.852,122.609z"/>
<path fill="#E60012" d="M579.734,117.523c0.729,0.292,1.258,0.711,1.586,1.258s0.492,1.112,0.492,1.695
	c0,0.912-0.292,1.659-0.875,2.242c-0.584,0.656-1.514,0.984-2.789,0.984c-1.276,0-2.188-0.328-2.734-0.984
	c-0.584-0.583-0.875-1.33-0.875-2.242c0-0.656,0.182-1.221,0.547-1.695c0.291-0.547,0.783-0.966,1.477-1.258
	c-1.058-0.547-1.586-1.33-1.586-2.352c0-0.547,0.127-1.002,0.383-1.367c0.328-0.438,0.711-0.783,1.148-1.039
	c0.51-0.219,1.057-0.328,1.641-0.328c0.947,0,1.731,0.256,2.352,0.766c0.583,0.547,0.875,1.203,0.875,1.969
	C581.375,116.193,580.828,116.977,579.734,117.523z M578.148,118.07c-0.62,0-1.148,0.219-1.586,0.656
	c-0.475,0.475-0.711,1.039-0.711,1.695c0,0.62,0.219,1.131,0.656,1.531c0.438,0.438,0.984,0.656,1.641,0.656
	c0.692,0,1.258-0.219,1.695-0.656c0.4-0.4,0.602-0.911,0.602-1.531c0-0.656-0.219-1.221-0.656-1.695
	C579.352,118.289,578.805,118.07,578.148,118.07z M578.148,117.031c0.547,0,1.002-0.182,1.367-0.547
	c0.364-0.328,0.547-0.747,0.547-1.258c0-0.474-0.183-0.875-0.547-1.203c-0.365-0.328-0.82-0.492-1.367-0.492
	c-0.475,0-0.912,0.164-1.312,0.492c-0.365,0.328-0.547,0.729-0.547,1.203c0,0.475,0.182,0.894,0.547,1.258
	C577.164,116.85,577.602,117.031,578.148,117.031z"/>
<path fill="#E60012" d="M589.086,117.523c0.729,0.292,1.258,0.711,1.586,1.258s0.492,1.112,0.492,1.695
	c0,0.912-0.292,1.659-0.875,2.242c-0.584,0.656-1.514,0.984-2.789,0.984c-1.276,0-2.188-0.328-2.734-0.984
	c-0.584-0.583-0.875-1.33-0.875-2.242c0-0.656,0.182-1.221,0.547-1.695c0.291-0.547,0.783-0.966,1.477-1.258
	c-1.058-0.547-1.586-1.33-1.586-2.352c0-0.547,0.127-1.002,0.383-1.367c0.328-0.438,0.711-0.783,1.148-1.039
	c0.51-0.219,1.057-0.328,1.641-0.328c0.947,0,1.731,0.256,2.352,0.766c0.583,0.547,0.875,1.203,0.875,1.969
	C590.727,116.193,590.18,116.977,589.086,117.523z M587.5,118.07c-0.62,0-1.148,0.219-1.586,0.656
	c-0.475,0.475-0.711,1.039-0.711,1.695c0,0.62,0.219,1.131,0.656,1.531c0.438,0.438,0.984,0.656,1.641,0.656
	c0.692,0,1.258-0.219,1.695-0.656c0.4-0.4,0.602-0.911,0.602-1.531c0-0.656-0.219-1.221-0.656-1.695
	C588.703,118.289,588.156,118.07,587.5,118.07z M587.5,117.031c0.547,0,1.002-0.182,1.367-0.547
	c0.364-0.328,0.547-0.747,0.547-1.258c0-0.474-0.183-0.875-0.547-1.203c-0.365-0.328-0.82-0.492-1.367-0.492
	c-0.475,0-0.912,0.164-1.312,0.492c-0.365,0.328-0.547,0.729-0.547,1.203c0,0.475,0.182,0.894,0.547,1.258
	C586.516,116.85,586.953,117.031,587.5,117.031z"/>
<path fill="#E60012" d="M596.852,123.703c-1.058,0-1.969-0.474-2.734-1.422c-0.766-0.947-1.148-2.352-1.148-4.211
	c0-1.896,0.383-3.299,1.148-4.211c0.766-0.947,1.677-1.422,2.734-1.422c1.057,0,1.969,0.475,2.734,1.422
	c0.766,0.912,1.148,2.315,1.148,4.211c0,1.859-0.383,3.264-1.148,4.211C598.82,123.229,597.908,123.703,596.852,123.703z
	 M596.852,122.609c0.838,0,1.477-0.438,1.914-1.312c0.438-0.838,0.656-1.914,0.656-3.227s-0.219-2.406-0.656-3.281
	c-0.438-0.838-1.076-1.258-1.914-1.258c-0.839,0-1.459,0.42-1.859,1.258c-0.438,0.875-0.656,1.969-0.656,3.281
	s0.219,2.389,0.656,3.227C595.393,122.172,596.013,122.609,596.852,122.609z"/>
<path fill="#0068B7" d="M12.866,151.804h0.809v6.82h-0.809v-5.977l-1.371,0.562v-0.773L12.866,151.804z"/>
<path fill="#0068B7" d="M17.788,157.886h3.551v0.738h-4.395v-0.738c0-0.305,0.082-0.609,0.246-0.914
	c0.164-0.352,0.339-0.645,0.527-0.879c0.211-0.258,0.609-0.598,1.195-1.02c0.633-0.492,1.031-0.855,1.195-1.09
	c0.141-0.258,0.211-0.492,0.211-0.703c0-0.258-0.105-0.492-0.316-0.703c-0.258-0.188-0.575-0.281-0.949-0.281
	c-0.375,0-0.656,0.07-0.844,0.211c-0.188,0.141-0.281,0.316-0.281,0.527H17.12c0-0.375,0.176-0.715,0.527-1.02
	c0.352-0.281,0.832-0.422,1.441-0.422c0.773,0,1.312,0.152,1.617,0.457c0.328,0.328,0.492,0.738,0.492,1.23
	c0,0.375-0.105,0.727-0.316,1.055c-0.211,0.281-0.715,0.703-1.512,1.266c-1.055,0.727-1.582,1.43-1.582,2.109V157.886z"/>
<path fill="#0068B7" d="M22.818,162.195l3.719-10.828h6.234v0.602h-5.742l-4.484,12.961l-1.805-4.32l-1.039,0.875l-0.383-0.602
	l2.133-1.75L22.818,162.195z"/>
<path fill="#0068B7" d="M29.648,162.974h4.734v0.984h-5.859v-0.984c0-0.406,0.109-0.812,0.328-1.219
	c0.218-0.469,0.453-0.859,0.703-1.172c0.281-0.344,0.812-0.797,1.594-1.359c0.844-0.656,1.375-1.141,1.594-1.453
	c0.188-0.344,0.281-0.656,0.281-0.938c0-0.344-0.141-0.656-0.422-0.938c-0.344-0.25-0.766-0.375-1.266-0.375
	c-0.5,0-0.875,0.094-1.125,0.281c-0.25,0.188-0.375,0.422-0.375,0.703h-1.078c0-0.5,0.234-0.953,0.703-1.359
	c0.469-0.375,1.109-0.562,1.922-0.562c1.031,0,1.75,0.203,2.156,0.609c0.438,0.438,0.656,0.984,0.656,1.641
	c0,0.5-0.141,0.969-0.422,1.406c-0.281,0.375-0.954,0.938-2.016,1.688c-1.406,0.969-2.109,1.906-2.109,2.812V162.974z"/>
<path fill="#0068B7" d="M47.977,158.945H40.32v-1.094h7.656V158.945z M47.977,161.242H40.32v-1.039h7.656V161.242z"/>
<path fill="#0068B7" d="M53.062,152.766h1.258v10.609h-1.258v-9.297l-2.133,0.875v-1.203L53.062,152.766z"/>
<path fill="#0068B7" d="M60.719,162.227h5.523v1.148h-6.836v-1.148c0-0.474,0.127-0.947,0.383-1.422
	c0.255-0.547,0.528-1.002,0.82-1.367c0.328-0.4,0.948-0.93,1.859-1.586c0.984-0.766,1.604-1.33,1.859-1.695
	c0.219-0.4,0.328-0.766,0.328-1.094c0-0.4-0.164-0.766-0.492-1.094c-0.401-0.291-0.894-0.438-1.477-0.438
	c-0.583,0-1.021,0.109-1.312,0.328c-0.292,0.219-0.438,0.492-0.438,0.82H59.68c0-0.583,0.273-1.111,0.82-1.586
	c0.547-0.438,1.294-0.656,2.242-0.656c1.203,0,2.042,0.237,2.516,0.711c0.51,0.511,0.766,1.148,0.766,1.914
	c0,0.584-0.164,1.131-0.492,1.641c-0.328,0.438-1.112,1.094-2.352,1.969c-1.641,1.131-2.461,2.225-2.461,3.281V162.227z"/>
<path fill="#0068B7" d="M69.031,164.523V152.93h10.992v11.594h-1.312v-0.93h-8.367v0.93H69.031z M78.711,162.445v-8.367h-8.367
	v8.367H78.711z M71.766,161.188v-5.414h5.305v5.305h-1.312v-0.602h-2.789v0.711H71.766z M75.758,159.383v-2.516h-2.789v2.516H75.758
	z"/>
<path fill="#0068B7" d="M82.375,154.844h1.422v-2.734h1.258v2.734h0.984v1.094h-0.984v1.805c0.109-0.036,0.2-0.072,0.273-0.109
	c0.073-0.036,0.31-0.127,0.711-0.273v1.148l-0.984,0.438v4.375c0,0.364-0.164,0.656-0.492,0.875
	c-0.183,0.182-0.766,0.346-1.75,0.492c-0.037-0.328-0.164-0.784-0.383-1.367h1.148c0.073,0,0.127-0.018,0.164-0.055
	c0.036-0.036,0.055-0.091,0.055-0.164v-3.719c-0.109,0.037-0.547,0.201-1.312,0.492l-0.328-1.258
	c0.838-0.219,1.385-0.383,1.641-0.492v-2.188h-1.422V154.844z M86.531,159.602h1.641v-1.312h1.203v1.312h1.805v1.094h-1.805v1.641
	l2.133-0.273v1.094l-3.5,0.492c0.073,0-0.219,0.036-0.875,0.109c-0.474,0.072-0.857,0.127-1.148,0.164l-0.273-1.258
	c0.146-0.036,0.319-0.063,0.52-0.082c0.2-0.018,0.374-0.027,0.52-0.027c0.073,0,0.547-0.036,1.422-0.109v-1.75h-1.641V159.602z
	 M86.586,154.023h1.531v-1.695h1.258v1.695h1.75v1.148h-1.75v1.586h2.188v1.094h-5.141v-1.094h1.695v-1.586h-1.531V154.023z
	 M93.148,164.688h-1.203v-12.578h1.203v4.594c0.109,0.073,0.784,0.693,2.023,1.859l-0.875,1.094
	c-0.474-0.547-0.857-0.93-1.148-1.148V164.688z"/>
<path fill="#0068B7" d="M98.07,153.039l1.367,0.383c-0.583,2.188-0.875,4.156-0.875,5.906c0,1.531,0.182,2.898,0.547,4.102
	l-1.312,0.328c-0.328-1.604-0.492-3.172-0.492-4.703C97.305,157.487,97.56,155.482,98.07,153.039z M104.688,155.609l-0.109-3.008
	h1.477v2.844c0.583-0.072,1.422-0.219,2.516-0.438l0.055,1.258c-0.255,0.037-0.547,0.082-0.875,0.137s-0.656,0.109-0.984,0.164
	s-0.565,0.082-0.711,0.082c0,2.261-0.073,3.701-0.219,4.32c-0.146,0.656-0.474,1.295-0.984,1.914
	c-0.474,0.583-1.312,1.185-2.516,1.805c-0.183-0.365-0.438-0.748-0.766-1.148c0.802-0.328,1.44-0.692,1.914-1.094
	c0.364-0.328,0.638-0.692,0.82-1.094c0.219-0.51,0.346-0.947,0.383-1.312c0-0.838,0.018-1.932,0.055-3.281
	c-1.312,0.109-2.589,0.128-3.828,0.055v-1.203c0.62,0.037,1.367,0.055,2.242,0.055C103.812,155.664,104.323,155.646,104.688,155.609
	z"/>
<path fill="#0068B7" d="M122.516,153.367l0.055,1.312l-3.281,0.219c-0.875,0.584-1.531,1.112-1.969,1.586
	c-0.438,0.547-0.748,1.039-0.93,1.477c-0.255,0.511-0.383,1.003-0.383,1.477c0,0.693,0.182,1.276,0.547,1.75
	c0.401,0.511,0.893,0.875,1.477,1.094c0.583,0.256,1.44,0.42,2.57,0.492l-0.055,1.422c-1.276-0.146-2.279-0.365-3.008-0.656
	c-0.948-0.438-1.641-0.984-2.078-1.641c-0.474-0.583-0.711-1.33-0.711-2.242c0-0.729,0.164-1.439,0.492-2.133
	c0.255-0.656,0.838-1.458,1.75-2.406l-2.461,0.273l-3.828,0.492l-0.109-1.422C113.62,154.315,117.594,153.951,122.516,153.367z"/>
<path fill="#0068B7" d="M125.141,156.594l-0.328-4.266h1.477l-0.273,4.266H125.141z M128.094,156.594l-0.273-4.266h1.477
	l-0.328,4.266H128.094z"/>
<path fill="#0068B7" d="M133.07,162.227h5.523v1.148h-6.836v-1.148c0-0.474,0.127-0.947,0.383-1.422
	c0.255-0.547,0.528-1.002,0.82-1.367c0.328-0.4,0.948-0.93,1.859-1.586c0.984-0.766,1.604-1.33,1.859-1.695
	c0.219-0.4,0.328-0.766,0.328-1.094c0-0.4-0.164-0.766-0.492-1.094c-0.401-0.291-0.894-0.438-1.477-0.438
	c-0.583,0-1.021,0.109-1.312,0.328c-0.292,0.219-0.438,0.492-0.438,0.82h-1.258c0-0.583,0.273-1.111,0.82-1.586
	c0.547-0.438,1.294-0.656,2.242-0.656c1.203,0,2.042,0.237,2.516,0.711c0.51,0.511,0.766,1.148,0.766,1.914
	c0,0.584-0.164,1.131-0.492,1.641c-0.328,0.438-1.112,1.094-2.352,1.969c-1.641,1.131-2.461,2.225-2.461,3.281V162.227z"/>
<path fill="#0068B7" d="M141.492,156.594l-0.328-4.266h1.477l-0.273,4.266H141.492z M144.445,156.594l-0.273-4.266h1.477
	l-0.328,4.266H144.445z"/>
<path fill="#0068B7" d="M159.32,151.945l0.711,0.711c-0.984,0.912-1.641,1.769-1.969,2.57c-0.438,1.021-0.656,2.097-0.656,3.227
	c0,0.693,0.109,1.404,0.328,2.133c0.255,0.803,0.492,1.386,0.711,1.75c0.255,0.365,0.766,0.967,1.531,1.805l-0.711,0.711
	c-0.802-0.729-1.312-1.295-1.531-1.695c-0.474-0.656-0.839-1.367-1.094-2.133c-0.292-0.875-0.438-1.731-0.438-2.57
	c0-1.239,0.292-2.461,0.875-3.664C157.442,153.987,158.19,153.039,159.32,151.945z"/>
<path fill="#0068B7" d="M165.117,152.766h1.258v10.609h-1.258v-9.297l-2.133,0.875v-1.203L165.117,152.766z"/>
<path fill="#0068B7" d="M177.914,155.281v-2.844h1.422v2.844h3.828v1.258h-3.828v6.617c0,0.4-0.109,0.674-0.328,0.82
	c-0.292,0.182-1.058,0.328-2.297,0.438c-0.073-0.584-0.109-0.857-0.109-0.82c0-0.037-0.128-0.255-0.383-0.656h1.422h0.219
	c0.036-0.036,0.055-0.109,0.055-0.219v-4.539c-0.875,1.021-1.695,1.842-2.461,2.461c-0.948,0.803-2.115,1.586-3.5,2.352
	c-0.255-0.51-0.565-0.93-0.93-1.258c1.641-0.838,2.935-1.658,3.883-2.461c1.057-0.875,1.932-1.786,2.625-2.734h-5.742v-1.258
	H177.914z"/>
<path fill="#0068B7" d="M191.695,153.094l-0.93,1.75h4.102l0.219-0.109l0.875,0.93c-0.839,1.933-1.367,3.081-1.586,3.445
	c-0.292,0.584-0.802,1.258-1.531,2.023c-0.656,0.693-1.422,1.295-2.297,1.805c-1.094,0.583-2.188,1.039-3.281,1.367
	c-0.183-0.475-0.456-0.894-0.82-1.258c0.948-0.255,1.914-0.602,2.898-1.039c0.838-0.4,1.549-0.893,2.133-1.477
	c0.51-0.474,1.039-1.13,1.586-1.969c0.292-0.51,0.674-1.367,1.148-2.57h-4.047c-0.511,0.803-1.039,1.514-1.586,2.133
	c-0.401,0.511-1.021,1.112-1.859,1.805c-0.183-0.219-0.31-0.364-0.383-0.438c-0.037-0.072-0.255-0.236-0.656-0.492
	c0.656-0.51,1.148-0.947,1.477-1.312c0.292-0.328,0.692-0.82,1.203-1.477c0.219-0.291,0.583-0.93,1.094-1.914
	c0.073-0.072,0.328-0.656,0.766-1.75L191.695,153.094z"/>
<path fill="#0068B7" d="M205.312,154.461h4.102l0.109-0.055l0.711,0.766l-1.477,3.117c-0.255,0.475-0.656,1.039-1.203,1.695
	c-0.401,0.547-0.966,1.148-1.695,1.805c-0.693,0.584-1.477,1.131-2.352,1.641c-0.656,0.364-1.513,0.747-2.57,1.148
	c-0.109-0.256-0.219-0.475-0.328-0.656c-0.109-0.146-0.292-0.328-0.547-0.547c1.385-0.474,2.424-0.93,3.117-1.367
	c0.766-0.438,1.604-1.057,2.516-1.859c-1.021-0.875-1.878-1.531-2.57-1.969l0.82-0.93c1.057,0.693,1.932,1.312,2.625,1.859
	c0.438-0.619,0.784-1.148,1.039-1.586c0.255-0.4,0.547-1.039,0.875-1.914h-3.883c-0.656,0.912-1.094,1.514-1.312,1.805
	c-0.401,0.401-0.766,0.729-1.094,0.984c-0.62,0.584-1.258,1.058-1.914,1.422c-0.219-0.474-0.511-0.856-0.875-1.148
	c0.948-0.547,1.659-1.039,2.133-1.477c0.583-0.474,1.13-1.111,1.641-1.914c0.547-0.875,1.002-1.786,1.367-2.734l1.477,0.492
	C205.805,153.477,205.567,153.951,205.312,154.461z"/>
<path fill="#0068B7" d="M224.781,159.055H213.68v-1.367h11.102V159.055z"/>
<path fill="#0068B7" d="M228.008,154.078h9.078l0.109-0.055l0.984,0.93l-0.82,2.242c-0.474,1.24-1.112,2.37-1.914,3.391
	c-0.875,1.058-1.787,1.859-2.734,2.406c-0.875,0.547-1.969,1.021-3.281,1.422l-0.328-0.766c-0.037-0.073-0.091-0.155-0.164-0.246
	c-0.073-0.091-0.164-0.191-0.273-0.301c1.495-0.4,2.552-0.802,3.172-1.203c0.984-0.619,1.859-1.439,2.625-2.461
	c0.729-0.911,1.403-2.26,2.023-4.047h-8.477V154.078z M239,153.914l-0.547,0.602c-0.073-0.109-0.255-0.282-0.547-0.52
	c-0.292-0.236-0.583-0.482-0.875-0.738l0.547-0.602C238.016,152.984,238.489,153.404,239,153.914z M238.07,152.273l0.656-0.656
	c0.438,0.328,0.911,0.748,1.422,1.258l-0.656,0.602C238.981,152.967,238.508,152.565,238.07,152.273z"/>
<path fill="#0068B7" d="M246.438,163.156v-10.773h1.312v4.156h4.375v1.258h-4.375v5.359h5.523v1.203h-12.195v-1.203H246.438z"/>
<path fill="#0068B7" d="M255.188,152.656l0.711-0.656c1.021,0.912,1.75,1.805,2.188,2.68c0.583,1.167,0.875,2.425,0.875,3.773
	c0,0.912-0.128,1.75-0.383,2.516c-0.292,0.912-0.583,1.55-0.875,1.914c-0.109,0.183-0.693,0.856-1.75,2.023l-0.766-0.766
	c0.766-0.766,1.258-1.349,1.477-1.75c0.328-0.51,0.583-1.075,0.766-1.695c0.219-0.729,0.328-1.513,0.328-2.352
	c0-1.094-0.183-2.078-0.547-2.953C256.846,154.553,256.172,153.641,255.188,152.656z"/>
<path fill="#0068B7" d="M271.047,152.984l1.422,0.383c-0.365,1.933-0.583,3.117-0.656,3.555c-0.109,1.131-0.164,2.115-0.164,2.953
	c0,1.459,0.127,2.826,0.383,4.102l-1.367,0.328c-0.037-0.656-0.082-1.185-0.137-1.586c-0.055-0.4-0.101-0.766-0.137-1.094
	c-0.037-0.291-0.055-0.856-0.055-1.695C270.336,157.815,270.573,155.5,271.047,152.984z M273.508,159.984l1.258,0.055
	c0,0.803,0.2,1.35,0.602,1.641c0.583,0.401,1.677,0.602,3.281,0.602c0.729,0,1.513-0.091,2.352-0.273l0.055,1.422
	c-1.677,0.072-2.498,0.109-2.461,0.109c-1.969,0-3.3-0.291-3.992-0.875C273.872,162.117,273.508,161.225,273.508,159.984z
	 M280.344,154.352l-0.055,1.258c-0.62-0.036-1.258-0.055-1.914-0.055c-1.276,0-2.698,0.146-4.266,0.438L274,154.734
	c1.458-0.291,2.898-0.438,4.32-0.438C279.049,154.297,279.724,154.315,280.344,154.352z"/>
<path fill="#0068B7" d="M287.727,154.68c0.292-0.072,0.565-0.127,0.82-0.164c0.255-0.036,0.62-0.109,1.094-0.219l0.055,1.258
	c-1.203,0.219-2.005,0.347-2.406,0.383c-0.729,2.078-1.24,3.428-1.531,4.047c-0.401,0.948-0.948,2.023-1.641,3.227l-1.203-0.656
	c1.239-2.224,2.224-4.393,2.953-6.508c-0.802,0.037-1.513,0.037-2.133,0v-1.258c0.948,0.073,1.477,0.109,1.586,0.109
	c0.328,0,0.638-0.018,0.93-0.055c0.364-1.057,0.602-1.859,0.711-2.406l1.422,0.383C288.273,153.076,288.055,153.695,287.727,154.68z
	 M292.266,161.133c0.438,0.109,0.766,0.21,0.984,0.301c0.219,0.092,0.346,0.155,0.383,0.191c0.073,0,0.264,0.092,0.574,0.273
	c0.31,0.183,0.684,0.383,1.121,0.602l-0.766,1.312c-0.984-0.692-1.75-1.166-2.297-1.422c-0.073,0.729-0.255,1.221-0.547,1.477
	c-0.474,0.364-1.13,0.547-1.969,0.547c-0.875,0-1.604-0.237-2.188-0.711c-0.474-0.328-0.711-0.729-0.711-1.203
	c0-0.547,0.237-1.002,0.711-1.367c0.401-0.364,1.057-0.547,1.969-0.547c0.438,0,0.93,0.073,1.477,0.219
	c-0.109-1.494-0.164-2.314-0.164-2.461c0-0.328,0.036-0.783,0.109-1.367l1.367,0.109c-0.109,0.584-0.164,1.148-0.164,1.695
	C292.156,159.183,292.192,159.967,292.266,161.133z M291.008,161.898c-0.583-0.219-1.13-0.328-1.641-0.328
	c-0.365,0-0.675,0.092-0.93,0.273c-0.255,0.219-0.383,0.42-0.383,0.602c0,0.109,0.055,0.256,0.164,0.438
	c0.073,0.109,0.237,0.219,0.492,0.328c0.292,0.109,0.583,0.164,0.875,0.164c0.547,0,0.948-0.127,1.203-0.383
	C290.971,162.811,291.044,162.445,291.008,161.898z M295.109,155.883l-0.547,1.258c-0.766-0.364-1.458-0.638-2.078-0.82
	c-0.109-0.036-0.82-0.219-2.133-0.547l0.273-1.148c0.948,0.146,1.713,0.311,2.297,0.492
	C292.995,155.154,293.724,155.409,295.109,155.883z"/>
<path fill="#0068B7" d="M301.945,157.578c0.766-0.255,1.258-0.4,1.477-0.438c0.219-0.036,0.602-0.055,1.148-0.055
	c1.13,0,2.06,0.311,2.789,0.93c0.692,0.656,1.039,1.459,1.039,2.406c0,1.094-0.401,1.987-1.203,2.68
	c-0.803,0.766-1.933,1.148-3.391,1.148c-1.167,0-2.115-0.256-2.844-0.766c-0.474-0.328-0.711-0.783-0.711-1.367
	c0-0.4,0.182-0.766,0.547-1.094c0.401-0.328,0.875-0.492,1.422-0.492c0.656,0,1.276,0.201,1.859,0.602
	c0.51,0.438,0.893,1.058,1.148,1.859c0.692-0.328,1.111-0.656,1.258-0.984c0.328-0.438,0.492-0.947,0.492-1.531
	c0-0.619-0.256-1.185-0.766-1.695c-0.475-0.438-1.203-0.656-2.188-0.656c-0.583,0-1.148,0.092-1.695,0.273
	c-0.511,0.219-1.094,0.529-1.75,0.93c-0.438,0.328-1.112,0.912-2.023,1.75l-0.984-1.094c2.844-2.406,5.049-4.393,6.617-5.961
	c-1.422,0.328-2.898,0.547-4.43,0.656l-0.109-1.312c3.026-0.182,4.995-0.419,5.906-0.711l0.82,1.148
	c-0.292,0.183-0.693,0.492-1.203,0.93c-0.328,0.292-0.875,0.775-1.641,1.449C302.766,156.858,302.237,157.323,301.945,157.578z
	 M303.312,163.211h0.766c-0.292-0.619-0.547-1.021-0.766-1.203c-0.401-0.291-0.748-0.438-1.039-0.438
	c-0.292,0-0.511,0.073-0.656,0.219c-0.183,0.183-0.273,0.347-0.273,0.492c0,0.219,0.127,0.401,0.383,0.547
	C302.2,163.084,302.729,163.211,303.312,163.211z"/>
<path fill="#0068B7" d="M313.867,154.516v-2.352h1.258v2.352h1.094l-0.328-0.328c-0.073-0.072-0.146-0.137-0.219-0.191
	c-0.073-0.055-0.128-0.082-0.164-0.082c0.291-0.291,0.674-0.783,1.148-1.477l0.93,0.766l-1.203,1.312h1.312v0.93h-2.57v0.164
	c0.619,0.365,1.385,0.748,2.297,1.148c-0.109,0.183-0.21,0.365-0.301,0.547c-0.092,0.183-0.191,0.347-0.301,0.492
	c-0.62-0.291-1.186-0.602-1.695-0.93v1.148h-1.258v-1.422c-0.803,0.693-1.568,1.24-2.297,1.641l-0.766-0.984
	c0.947-0.438,1.859-1.039,2.734-1.805h-2.516v-0.93H313.867z M312.938,159.328l0.547-1.258l1.203,0.383l-0.438,0.875h3.5v0.984
	h-1.039c-0.109,0.766-0.383,1.495-0.82,2.188l1.039,0.602l-0.766,1.039l-1.094-0.711c-0.656,0.438-1.186,0.711-1.586,0.82
	c-0.584,0.219-1.258,0.383-2.023,0.492c-0.219-0.511-0.383-0.875-0.492-1.094c0.729-0.037,1.349-0.146,1.859-0.328
	c0.328-0.072,0.711-0.236,1.148-0.492c-0.438-0.255-0.839-0.438-1.203-0.547l-0.219,0.328l-1.039-0.547
	c0.072-0.109,0.164-0.264,0.273-0.465c0.109-0.2,0.328-0.629,0.656-1.285h-1.422v-0.984H312.938z M313.32,153.859l-0.875,0.602
	l-0.984-1.312l0.875-0.656C312.664,152.894,312.992,153.35,313.32,153.859z M315.562,160.312h-1.75l-0.547,0.984l1.586,0.656
	C315.18,161.334,315.416,160.787,315.562,160.312z M319.883,154.898h3.445v1.148h-0.82c-0.183,1.604-0.328,2.607-0.438,3.008
	c-0.109,0.401-0.401,1.112-0.875,2.133c0.328,0.438,0.747,0.894,1.258,1.367c0.219,0.219,0.656,0.547,1.312,0.984
	c-0.328,0.328-0.602,0.747-0.82,1.258c-0.729-0.547-1.531-1.367-2.406-2.461c-0.656,0.803-1.604,1.586-2.844,2.352
	c-0.109-0.292-0.365-0.693-0.766-1.203c0.656-0.328,1.203-0.656,1.641-0.984c0.438-0.4,0.838-0.82,1.203-1.258
	c-0.256-0.547-0.475-1.039-0.656-1.477c-0.073-0.219-0.256-0.838-0.547-1.859L318.023,159c-0.256-0.364-0.547-0.692-0.875-0.984
	c0.692-1.239,1.13-2.133,1.312-2.68c0.4-0.984,0.729-2.078,0.984-3.281l1.258,0.383
	C320.338,153.641,320.064,154.461,319.883,154.898z M320.43,160.039c0.255-0.547,0.438-1.075,0.547-1.586
	c0.146-0.729,0.236-1.531,0.273-2.406h-1.859c0.109,0.875,0.255,1.678,0.438,2.406C319.974,159,320.174,159.529,320.43,160.039z"/>
<path fill="#0068B7" d="M325.242,161.898l0.93-0.82c0.911,0.875,1.658,1.732,2.242,2.57l-1.148,0.93
	c-0.256-0.438-0.511-0.82-0.766-1.148C326.391,163.284,325.971,162.773,325.242,161.898z"/>
<path fill="#0068B7" d="M342.25,163.648c-0.037-0.438-0.128-0.893-0.273-1.367c1.859,0,3.299-0.164,4.32-0.492
	c1.057-0.291,1.841-0.747,2.352-1.367c0.51-0.619,0.766-1.312,0.766-2.078c0-0.947-0.237-1.658-0.711-2.133
	c-0.475-0.474-1.148-0.711-2.023-0.711c-0.328,0-0.857,0.055-1.586,0.164c-0.912,0.146-2.771,0.529-5.578,1.148l-0.219-1.477
	l2.844-0.383l3.172-0.547c0.255-0.036,0.674-0.055,1.258-0.055c1.385,0,2.424,0.347,3.117,1.039
	c0.692,0.693,1.039,1.641,1.039,2.844c0,1.495-0.62,2.734-1.859,3.719C347.627,162.975,345.422,163.539,342.25,163.648z"/>
<path fill="#0068B7" d="M360.023,154.516c0.947-0.036,1.622-0.091,2.023-0.164c0.438-0.072,0.811-0.146,1.121-0.219
	c0.31-0.072,0.646-0.146,1.012-0.219l0.055,1.367c-1.021,0.146-2.443,0.311-4.266,0.492v1.805c1.275-0.036,2.479-0.182,3.609-0.438
	l0.055,1.258l-1.914,0.219l-1.75,0.055c0,0.948,0.018,1.623,0.055,2.023c0.947,0.256,1.768,0.529,2.461,0.82
	c0.729,0.365,1.477,0.803,2.242,1.312l-0.875,1.094c-0.839-0.583-1.367-0.947-1.586-1.094c-0.438-0.255-1.186-0.583-2.242-0.984
	c0,0.803-0.037,1.312-0.109,1.531c-0.109,0.291-0.328,0.51-0.656,0.656c-0.511,0.291-1.148,0.438-1.914,0.438
	c-0.984,0-1.732-0.201-2.242-0.602c-0.511-0.401-0.766-0.875-0.766-1.422s0.219-1.002,0.656-1.367
	c0.583-0.474,1.439-0.711,2.57-0.711c0.182,0,0.564,0.037,1.148,0.109v-1.75c-1.75,0-2.789-0.072-3.117-0.219
	c-0.584-0.291-0.894-0.911-0.93-1.859l1.258-0.055c0.072,0.365,0.146,0.602,0.219,0.711c0.036,0.109,0.182,0.201,0.438,0.273
	c0.328,0.073,1.039,0.092,2.133,0.055v-1.859c-1.714,0-2.771-0.018-3.172-0.055c-0.475,0-1.021-0.072-1.641-0.219l0.164-1.258
	c0.438,0.109,1.094,0.201,1.969,0.273c0.802,0.073,1.695,0.109,2.68,0.109l-0.055-2.242l1.586,0.055
	c0,0.146-0.019,0.328-0.055,0.547c-0.037,0.219-0.064,0.447-0.082,0.684C360.087,153.905,360.06,154.188,360.023,154.516z
	 M358.766,162.117v-0.602c-0.401-0.036-0.857-0.055-1.367-0.055c-0.62,0-1.094,0.109-1.422,0.328
	c-0.256,0.219-0.383,0.456-0.383,0.711c0,0.219,0.127,0.401,0.383,0.547c0.364,0.256,0.82,0.383,1.367,0.383
	c0.51,0,0.875-0.109,1.094-0.328C358.656,162.92,358.766,162.592,358.766,162.117z"/>
<path fill="#0068B7" d="M371.344,158.016c0.291,0.183,0.638,0.365,1.039,0.547c-0.401,1.312-0.711,2.097-0.93,2.352
	c-0.219,0.256-0.492,0.383-0.82,0.383c-0.292,0-0.547-0.164-0.766-0.492c-0.328-0.619-0.492-1.604-0.492-2.953
	c0-1.458,0.236-3.117,0.711-4.977l1.422,0.383c-0.401,1.459-0.656,2.644-0.766,3.555c-0.109,0.948-0.128,1.659-0.055,2.133
	c0,0.073,0.018,0.128,0.055,0.164h0.109c0.036,0,0.072-0.018,0.109-0.055C371.033,158.909,371.161,158.562,371.344,158.016z
	 M371.562,164.469c-0.183-0.547-0.365-1.003-0.547-1.367c1.203-0.219,2.133-0.528,2.789-0.93c0.619-0.4,1.075-0.966,1.367-1.695
	c0.291-0.766,0.438-1.896,0.438-3.391c0-1.057-0.092-2.461-0.273-4.211l1.477-0.109c0.109,1.459,0.164,2.844,0.164,4.156
	c0,1.823-0.183,3.209-0.547,4.156c-0.292,0.729-0.766,1.35-1.422,1.859C374.096,163.63,372.947,164.141,371.562,164.469z"/>
<path fill="#0068B7" d="M386.547,156.43v-4.266h1.258v4.266h4.703v1.094h-4.703v1.914h5.523v1.148h-5.523v3.992h-1.258v-3.992
	h-5.359v-1.148h5.359v-1.914h-4.43v-1.094H386.547z M382.391,153.586l1.094-0.711c0.656,0.766,1.203,1.568,1.641,2.406l-1.094,0.656
	C383.557,155.026,383.01,154.242,382.391,153.586z M390.047,156.047l-0.93-0.711c0.4-0.547,1.002-1.403,1.805-2.57l1.203,0.82
	c0,0.037-0.082,0.146-0.246,0.328c-0.164,0.183-0.483,0.584-0.957,1.203C390.521,155.519,390.229,155.828,390.047,156.047z"/>
<path fill="#0068B7" d="M400.602,153.312v-1.203h1.312v1.203h4.648v1.148h-2.023l-0.82,1.859h3.555v1.203h-12.195v-1.203h3.5
	c-0.183-0.4-0.328-0.766-0.438-1.094s-0.219-0.583-0.328-0.766h-2.078v-1.148H400.602z M397.047,164.797v-6.398h8.312v6.344h-1.367
	v-0.711h-5.633v0.766H397.047z M403.992,160.586v-1.148h-5.633v1.148H403.992z M403.992,162.938v-1.258h-5.633v1.258H403.992z
	 M402.461,156.32l0.656-1.859h-3.992c0.072,0.219,0.328,0.839,0.766,1.859H402.461z"/>
<path fill="#0068B7" d="M415.586,164.25c-0.183-0.511-0.383-0.93-0.602-1.258c1.275-0.291,2.096-0.547,2.461-0.766
	c0.656-0.328,1.185-0.802,1.586-1.422c0.4-0.619,0.602-1.385,0.602-2.297c0-1.166-0.328-2.096-0.984-2.789
	c-0.729-0.729-1.678-1.111-2.844-1.148c-0.438,2.334-0.875,4.011-1.312,5.031c-0.584,1.386-1.186,2.389-1.805,3.008
	c-0.256,0.328-0.602,0.492-1.039,0.492c-0.547,0-1.039-0.291-1.477-0.875c-0.584-0.802-0.875-1.805-0.875-3.008
	c0-1.604,0.583-2.953,1.75-4.047c1.166-1.094,2.697-1.641,4.594-1.641c0.947,0,1.877,0.219,2.789,0.656
	c0.619,0.256,1.111,0.584,1.477,0.984c0.364,0.401,0.656,0.894,0.875,1.477c0.182,0.656,0.273,1.258,0.273,1.805
	c0,1.094-0.256,2.061-0.766,2.898c-0.438,0.766-1.131,1.404-2.078,1.914C417.627,163.666,416.752,163.994,415.586,164.25z
	 M414.492,154.68c-1.422,0.328-2.425,0.875-3.008,1.641c-0.62,0.839-0.93,1.787-0.93,2.844c0,0.839,0.164,1.514,0.492,2.023
	c0.182,0.328,0.4,0.492,0.656,0.492c0.146,0,0.273-0.072,0.383-0.219c0.328-0.328,0.766-1.166,1.312-2.516
	C413.908,157.561,414.273,156.139,414.492,154.68z"/>
<path fill="#0068B7" d="M424.445,152.602h10.172v10.609c0,0.474-0.109,0.783-0.328,0.93c-0.256,0.219-0.894,0.4-1.914,0.547
	c-0.073-0.219-0.146-0.475-0.219-0.766c-0.037-0.109-0.183-0.328-0.438-0.656h1.531c0.036,0,0.072-0.018,0.109-0.055
	c0.036-0.036,0.055-0.072,0.055-0.109v-9.406h-7.766l-0.055,3.5c0,1.312-0.055,2.406-0.164,3.281
	c-0.146,0.839-0.311,1.514-0.492,2.023c-0.146,0.401-0.475,1.094-0.984,2.078c-0.328-0.365-0.693-0.639-1.094-0.82
	c0.547-1.021,0.911-1.841,1.094-2.461c0.219-0.911,0.346-1.841,0.383-2.789C424.408,157.269,424.445,155.3,424.445,152.602z
	 M428.711,155.227v-1.148h1.148v1.148h2.734v1.094h-2.734v1.203h3.117v1.039h-7v-1.039h2.734v-1.203h-2.352v-1.094H428.711z
	 M426.633,163.648v-4.211h5.359v3.336h-4.156v0.875H426.633z M430.789,161.68v-1.203h-2.953v1.203H430.789z"/>
<path fill="#0068B7" d="M436.695,163.867l1.148-2.242l1.039-2.078c0.328,0.292,0.674,0.584,1.039,0.875
	c-1.021,2.188-1.695,3.572-2.023,4.156L436.695,163.867z M436.805,156.867l0.602-1.039c0.547,0.219,0.947,0.42,1.203,0.602
	c0.146,0.073,0.291,0.146,0.438,0.219c0.146,0.073,0.273,0.164,0.383,0.273l-0.711,1.148
	C438.135,157.597,437.497,157.195,436.805,156.867z M437.461,153.367l0.711-0.93c0.438,0.292,1.057,0.729,1.859,1.312l-0.766,1.039
	C439.156,154.68,438.555,154.206,437.461,153.367z M444.406,154.023v-1.859h1.203v1.859h2.844l0.109-0.109l0.875,0.82
	c-0.256,0.401-0.766,1.24-1.531,2.516c-0.109-0.109-0.246-0.209-0.41-0.301c-0.164-0.091-0.374-0.228-0.629-0.41
	c0.547-0.838,0.838-1.312,0.875-1.422h-2.133v2.57h2.133l0.164-0.109l0.82,0.766c-0.328,0.693-0.729,1.404-1.203,2.133
	c-0.073,0.109-0.42,0.565-1.039,1.367c0.583,0.475,1.057,0.803,1.422,0.984c0.729,0.365,1.312,0.619,1.75,0.766
	c-0.328,0.328-0.511,0.528-0.547,0.602c0,0.036-0.027,0.109-0.082,0.219s-0.119,0.236-0.191,0.383
	c-1.24-0.475-2.334-1.167-3.281-2.078c-1.131,0.838-2.297,1.513-3.5,2.023c-0.037-0.073-0.073-0.155-0.109-0.246
	c-0.037-0.092-0.064-0.174-0.082-0.246c-0.019-0.073-0.046-0.146-0.082-0.219c-0.073-0.109-0.219-0.273-0.438-0.492
	c1.239-0.364,2.352-0.911,3.336-1.641c-0.766-0.984-1.331-2.06-1.695-3.227h-0.93c-0.037,1.312-0.183,2.425-0.438,3.336
	c-0.146,0.62-0.565,1.494-1.258,2.625c-0.365-0.256-0.729-0.492-1.094-0.711c0.364-0.547,0.619-1.021,0.766-1.422
	c0.291-0.656,0.51-1.367,0.656-2.133c0.109-0.619,0.164-1.275,0.164-1.969v-4.375H444.406z M444.406,157.688v-2.57h-2.352v2.57
	H444.406z M445.609,161.023c0.364-0.364,0.692-0.783,0.984-1.258c0.072-0.072,0.273-0.438,0.602-1.094h-3.008
	C444.552,159.584,445.025,160.367,445.609,161.023z"/>
<path fill="#0068B7" d="M453.867,154.516v-2.352h1.258v2.352h1.094l-0.328-0.328c-0.073-0.072-0.146-0.137-0.219-0.191
	c-0.073-0.055-0.128-0.082-0.164-0.082c0.291-0.291,0.674-0.783,1.148-1.477l0.93,0.766l-1.203,1.312h1.312v0.93h-2.57v0.164
	c0.619,0.365,1.385,0.748,2.297,1.148c-0.109,0.183-0.21,0.365-0.301,0.547c-0.092,0.183-0.191,0.347-0.301,0.492
	c-0.62-0.291-1.186-0.602-1.695-0.93v1.148h-1.258v-1.422c-0.803,0.693-1.568,1.24-2.297,1.641l-0.766-0.984
	c0.947-0.438,1.859-1.039,2.734-1.805h-2.516v-0.93H453.867z M452.938,159.328l0.547-1.258l1.203,0.383l-0.438,0.875h3.5v0.984
	h-1.039c-0.109,0.766-0.383,1.495-0.82,2.188l1.039,0.602l-0.766,1.039l-1.094-0.711c-0.656,0.438-1.186,0.711-1.586,0.82
	c-0.584,0.219-1.258,0.383-2.023,0.492c-0.219-0.511-0.383-0.875-0.492-1.094c0.729-0.037,1.349-0.146,1.859-0.328
	c0.328-0.072,0.711-0.236,1.148-0.492c-0.438-0.255-0.839-0.438-1.203-0.547l-0.219,0.328l-1.039-0.547
	c0.072-0.109,0.164-0.264,0.273-0.465c0.109-0.2,0.328-0.629,0.656-1.285h-1.422v-0.984H452.938z M453.32,153.859l-0.875,0.602
	l-0.984-1.312l0.875-0.656C452.664,152.894,452.992,153.35,453.32,153.859z M455.562,160.312h-1.75l-0.547,0.984l1.586,0.656
	C455.18,161.334,455.416,160.787,455.562,160.312z M459.883,154.898h3.445v1.148h-0.82c-0.183,1.604-0.328,2.607-0.438,3.008
	c-0.109,0.401-0.401,1.112-0.875,2.133c0.328,0.438,0.747,0.894,1.258,1.367c0.219,0.219,0.656,0.547,1.312,0.984
	c-0.328,0.328-0.602,0.747-0.82,1.258c-0.729-0.547-1.531-1.367-2.406-2.461c-0.656,0.803-1.604,1.586-2.844,2.352
	c-0.109-0.292-0.365-0.693-0.766-1.203c0.656-0.328,1.203-0.656,1.641-0.984c0.438-0.4,0.838-0.82,1.203-1.258
	c-0.256-0.547-0.475-1.039-0.656-1.477c-0.073-0.219-0.256-0.838-0.547-1.859L458.023,159c-0.256-0.364-0.547-0.692-0.875-0.984
	c0.692-1.239,1.13-2.133,1.312-2.68c0.4-0.984,0.729-2.078,0.984-3.281l1.258,0.383
	C460.338,153.641,460.064,154.461,459.883,154.898z M460.43,160.039c0.255-0.547,0.438-1.075,0.547-1.586
	c0.146-0.729,0.236-1.531,0.273-2.406h-1.859c0.109,0.875,0.255,1.678,0.438,2.406C459.974,159,460.174,159.529,460.43,160.039z"/>
<path fill="#0068B7" d="M466.5,162.828v-10.391h1.258v3.773h3.227v1.203h-3.227v5.195c0.838-0.146,1.95-0.4,3.336-0.766v1.148
	l-3.062,0.766l-2.898,0.711l-0.383-1.312C465.552,163.011,466.135,162.901,466.5,162.828z M471.969,163.375v-10.992h1.258v4.047
	c0.656-0.219,1.221-0.438,1.695-0.656c0.547-0.219,1.057-0.474,1.531-0.766l0.766,1.094c-0.292,0.146-0.82,0.383-1.586,0.711
	c-1.167,0.438-1.969,0.729-2.406,0.875v5.25c0,0.037,0.036,0.092,0.109,0.164c0.072,0.073,0.127,0.109,0.164,0.109
	c0.036,0.037,0.182,0.055,0.438,0.055h1.312c0.4,0,0.619-0.018,0.656-0.055c0.109-0.036,0.182-0.127,0.219-0.273l0.273-1.312
	c0.619,0.256,1.057,0.401,1.312,0.438c-0.256,1.131-0.547,1.822-0.875,2.078c-0.256,0.182-0.748,0.273-1.477,0.273h-1.695
	c-0.656,0-1.112-0.092-1.367-0.273C472.078,163.994,471.969,163.739,471.969,163.375z"/>
<path fill="#0068B7" d="M484.492,161.133v-1.039h1.312v1.039h5.633v1.148h-5.633v2.406h-1.312v-2.406h-5.469v-1.148H484.492z
	 M482.25,158.453c-0.292,0.256-0.666,0.584-1.121,0.984c-0.456,0.401-0.848,0.748-1.176,1.039l-0.82-1.094
	c0.802-0.583,1.586-1.185,2.352-1.805C481.849,158.016,482.104,158.308,482.25,158.453z M484.492,153.203v-1.148h1.367v1.148h5.359
	v1.148h-5.688l-1.367,2.133l0.711,0.438l1.422-1.969l1.094,0.875l-2.516,3.008c0.146,0,0.729-0.055,1.75-0.164l-0.438-0.602
	l1.039-0.547l1.367,2.078l-1.094,0.656l-0.383-0.766l-4.648,0.656L482.195,159l1.148-0.055l0.82-1.039
	c-0.803-0.547-1.514-1.021-2.133-1.422l0.656-0.93l0.547,0.328c0.51-0.947,0.783-1.458,0.82-1.531h-4.812v-1.148H484.492z
	 M479.461,155.555l0.766-0.875c0.072,0.037,0.264,0.174,0.574,0.41c0.31,0.237,0.629,0.52,0.957,0.848l-0.82,0.93
	C480.354,156.32,479.861,155.883,479.461,155.555z M488.758,156.977c-0.365-0.438-0.602-0.711-0.711-0.82
	c0.619-0.51,1.166-1.002,1.641-1.477l0.875,0.875C489.76,156.211,489.158,156.686,488.758,156.977z M491.328,159.219l-0.82,0.984
	l-2.188-1.75l0.766-0.93C489.778,157.998,490.525,158.562,491.328,159.219z"/>
<path fill="#0068B7" d="M494.828,160.969c0.51,0,0.947,0.183,1.312,0.547c0.364,0.365,0.547,0.803,0.547,1.312
	c0,0.511-0.183,0.947-0.547,1.312c-0.365,0.364-0.803,0.547-1.312,0.547c-0.511,0-0.948-0.183-1.312-0.547
	c-0.365-0.365-0.547-0.802-0.547-1.312c0-0.51,0.182-0.947,0.547-1.312C493.88,161.151,494.317,160.969,494.828,160.969z
	 M494.828,161.844c-0.256,0-0.475,0.092-0.656,0.273c-0.219,0.219-0.328,0.456-0.328,0.711c0,0.292,0.109,0.529,0.328,0.711
	c0.182,0.182,0.4,0.273,0.656,0.273c0.291,0,0.528-0.092,0.711-0.273c0.182-0.182,0.273-0.419,0.273-0.711
	c0-0.219-0.092-0.455-0.273-0.711C495.356,161.936,495.119,161.844,494.828,161.844z"/>
<path d="M21.521,12.797V0.602h11.211v12.031h-1.367v-0.656h-8.586v0.82H21.521z M31.365,10.828V1.75h-8.586v9.078H31.365z
	 M28.139,7.383c0.62,0.328,1.549,0.894,2.789,1.695l-0.766,1.039c-0.693-0.51-1.185-0.838-1.477-0.984
	c-0.255-0.182-0.748-0.456-1.477-0.82c-0.802,0.62-1.312,0.984-1.531,1.094c-0.547,0.365-1.13,0.675-1.75,0.93
	c-0.146-0.438-0.365-0.82-0.656-1.148c1.021-0.328,1.95-0.838,2.789-1.531c-0.583-0.328-1.404-0.711-2.461-1.148l0.492-0.984
	c0.219,0.073,0.893,0.347,2.023,0.82l0.875,0.492c0.984-1.094,1.841-2.479,2.57-4.156l1.203,0.656
	C30.034,4.94,29.159,6.289,28.139,7.383z M25.787,4.375l-0.93,0.711c-0.255-0.328-0.656-0.838-1.203-1.531l0.875-0.711
	C25.04,3.391,25.459,3.901,25.787,4.375z M26.881,4.375l-0.766-1.75l1.039-0.438l0.82,1.75L26.881,4.375z"/>
<path d="M37.162,5.906h-0.984V0.766h5.469v1.094h-4.32v2.953h0.328c1.531,0,2.643,0.292,3.336,0.875
	c0.692,0.583,1.039,1.404,1.039,2.461c0,0.984-0.31,1.841-0.93,2.57c-0.583,0.656-1.422,0.984-2.516,0.984
	c-0.984,0-1.75-0.219-2.297-0.656s-0.82-0.948-0.82-1.531h1.258c0,0.328,0.146,0.583,0.438,0.766
	c0.364,0.255,0.82,0.383,1.367,0.383c0.62,0,1.13-0.2,1.531-0.602c0.438-0.51,0.656-1.094,0.656-1.75
	c0-0.766-0.255-1.367-0.766-1.805C39.44,6.107,38.511,5.906,37.162,5.906z"/>
<path d="M58.873,1.859V0.711h10.992v1.148h-4.812v4.922h5.414V7.93h-5.414v4.812h-1.367V7.93h-5.359V6.781h5.359V1.859H58.873z
	 M59.584,3.445l1.039-0.656c0.802,1.094,1.367,2.005,1.695,2.734L61.17,6.18C60.732,5.195,60.204,4.284,59.584,3.445z M68.006,2.625
	l1.203,0.766L67.24,6.344l-1.039-0.656C67.003,4.412,67.604,3.391,68.006,2.625z"/>
<path d="M73.584,3.609V0.383h1.258v3.227h1.367v1.148h-1.367v3.773c0.255-0.109,0.51-0.2,0.766-0.273
	c0.255-0.073,0.492-0.146,0.711-0.219l-0.055,1.203L72.326,10.5l-0.328-1.312c0.656-0.109,1.185-0.237,1.586-0.383V4.758h-1.367
	V3.609H73.584z M80.803,12.523c-0.073-0.474-0.201-0.875-0.383-1.203h1.477c0.292,0,0.492-0.055,0.602-0.164
	c0.182-0.182,0.292-0.638,0.328-1.367c0.109-1.495,0.164-3.609,0.164-6.344h-4.43c-0.474,1.24-0.729,1.896-0.766,1.969
	c0,0.037-0.201,0.474-0.602,1.312c-0.255-0.146-0.638-0.328-1.148-0.547c0.547-0.984,1.002-2.005,1.367-3.062
	C77.74,2.023,77.995,0.984,78.178,0l1.312,0.219c0,0.037-0.183,0.729-0.547,2.078h5.359c-0.073,3.609-0.146,5.998-0.219,7.164
	c-0.037,1.13-0.183,1.896-0.438,2.297c-0.109,0.219-0.292,0.383-0.547,0.492C82.662,12.432,81.896,12.523,80.803,12.523z
	 M82.006,7.711v1.203l-4.375,1.258l-0.328-1.312C79.125,8.422,80.693,8.039,82.006,7.711z M78.178,6.453V5.305h3.445v1.148H78.178z"
	/>
<path d="M93.49,1.477V0.164h1.312v1.312h3.008v1.914h0.875V4.43h-0.875v1.969h-3.008v0.93h3.391v1.039h-3.391v1.039h3.828v1.039
	h-3.828v2.188H93.49v-2.188h-3.883V9.406h3.883V8.367h-3.281V7.328h3.281v-0.93h-2.734V5.305h2.734V4.43H90.1V4.266l-1.203,1.531
	v6.781h-1.258V7.109c-0.292,0.292-0.656,0.602-1.094,0.93c-0.183-0.438-0.419-0.82-0.711-1.148c0.948-0.802,1.549-1.331,1.805-1.586
	c0.547-0.62,1.075-1.276,1.586-1.969L90.1,4.211v-0.82h3.391V2.516h-2.734V1.477H93.49z M86.764,3.5
	c-0.183-0.328-0.456-0.692-0.82-1.094c0.547-0.328,1.13-0.711,1.75-1.148c0.364-0.292,0.838-0.674,1.422-1.148l0.875,0.984
	c-0.912,0.766-1.44,1.203-1.586,1.312C87.821,2.808,87.274,3.172,86.764,3.5z M96.607,3.391V2.516h-1.805v0.875H96.607z
	 M96.607,5.305V4.43h-1.805v0.875H96.607z"/>
<path d="M106.779,12.25c-0.183-0.511-0.383-0.93-0.602-1.258c1.276-0.292,2.096-0.547,2.461-0.766
	c0.656-0.328,1.185-0.802,1.586-1.422c0.401-0.62,0.602-1.385,0.602-2.297c0-1.167-0.328-2.096-0.984-2.789
	c-0.729-0.729-1.677-1.112-2.844-1.148c-0.438,2.333-0.875,4.011-1.312,5.031c-0.583,1.386-1.185,2.388-1.805,3.008
	c-0.255,0.328-0.602,0.492-1.039,0.492c-0.547,0-1.039-0.292-1.477-0.875c-0.583-0.802-0.875-1.805-0.875-3.008
	c0-1.604,0.583-2.953,1.75-4.047c1.167-1.094,2.698-1.641,4.594-1.641c0.948,0,1.877,0.219,2.789,0.656
	c0.62,0.255,1.112,0.583,1.477,0.984c0.364,0.401,0.656,0.894,0.875,1.477c0.182,0.656,0.273,1.258,0.273,1.805
	c0,1.094-0.255,2.06-0.766,2.898c-0.438,0.766-1.13,1.404-2.078,1.914C108.821,11.667,107.946,11.995,106.779,12.25z M105.686,2.68
	c-1.422,0.328-2.425,0.875-3.008,1.641c-0.62,0.839-0.93,1.787-0.93,2.844c0,0.839,0.164,1.513,0.492,2.023
	c0.182,0.328,0.401,0.492,0.656,0.492c0.146,0,0.273-0.073,0.383-0.219c0.328-0.328,0.766-1.167,1.312-2.516
	C105.102,5.56,105.467,4.138,105.686,2.68z"/>
<path d="M117.662,0.766h1.258v10.609h-1.258V2.078l-2.133,0.875V1.75L117.662,0.766z"/>
<path d="M125.318,10.227h5.523v1.148h-6.836v-1.148c0-0.474,0.127-0.948,0.383-1.422c0.255-0.547,0.528-1.002,0.82-1.367
	c0.328-0.401,0.948-0.93,1.859-1.586c0.984-0.766,1.604-1.331,1.859-1.695c0.219-0.401,0.328-0.766,0.328-1.094
	c0-0.401-0.164-0.766-0.492-1.094c-0.401-0.292-0.894-0.438-1.477-0.438c-0.583,0-1.021,0.109-1.312,0.328
	c-0.292,0.219-0.438,0.492-0.438,0.82h-1.258c0-0.583,0.273-1.112,0.82-1.586c0.547-0.438,1.294-0.656,2.242-0.656
	c1.203,0,2.042,0.237,2.516,0.711c0.51,0.511,0.766,1.148,0.766,1.914c0,0.583-0.164,1.13-0.492,1.641
	c-0.328,0.438-1.112,1.094-2.352,1.969c-1.641,1.13-2.461,2.224-2.461,3.281V10.227z"/>
<path d="M138.498,1.312V0.109h1.312v1.203h4.648v1.148h-2.023l-0.82,1.859h3.555v1.203h-12.195V4.32h3.5
	c-0.183-0.401-0.328-0.766-0.438-1.094s-0.219-0.583-0.328-0.766h-2.078V1.312H138.498z M134.943,12.797V6.398h8.312v6.344h-1.367
	v-0.711h-5.633v0.766H134.943z M141.889,8.586V7.438h-5.633v1.148H141.889z M141.889,10.938V9.68h-5.633v1.258H141.889z
	 M140.357,4.32l0.656-1.859h-3.992c0.073,0.219,0.328,0.839,0.766,1.859H140.357z"/>
<path d="M147.303,12.578V0.383h3.227l0.273-0.055l0.82,0.711l-0.547,1.203l-1.148,2.406c0.656,0.948,1.075,1.714,1.258,2.297
	c0.182,0.547,0.273,1.003,0.273,1.367c0,0.583-0.146,1.021-0.438,1.312c-0.292,0.328-0.912,0.583-1.859,0.766
	c-0.073-0.474-0.219-0.93-0.438-1.367h0.82c0.182,0,0.328-0.055,0.438-0.164c0.073-0.073,0.109-0.219,0.109-0.438
	c0-0.948-0.438-2.188-1.312-3.719c0.182-0.292,0.62-1.349,1.312-3.172h-1.586v11.047H147.303z M150.912,4.922l1.203-0.164V0.164
	h1.203v1.75h1.75v1.094h-1.75v1.477l1.805-0.383l-0.055,1.039c-1.349,0.365-2.662,0.693-3.938,0.984L150.912,4.922z M154.357,5.633
	l1.258,0.273l-0.383,0.984h3.117v5.742h-1.258v-0.602h-3.719v0.602h-1.258V6.891h1.914C154.065,6.781,154.175,6.362,154.357,5.633z
	 M153.373,8.914h3.719V7.875h-3.719V8.914z M153.373,10.992h3.719V9.898h-3.719V10.992z M155.561,5.031V0.164h1.148v1.969
	c0.438-0.146,1.021-0.51,1.75-1.094l0.711,0.984c-0.693,0.438-1.513,0.875-2.461,1.312v1.258c0,0.073,0.036,0.146,0.109,0.219
	c0.073,0.073,0.2,0.109,0.383,0.109h0.328c0.364,0,0.583-0.036,0.656-0.109c0.146-0.109,0.273-0.401,0.383-0.875
	c0.547,0.255,0.966,0.401,1.258,0.438c-0.255,0.693-0.511,1.13-0.766,1.312c-0.255,0.219-0.583,0.328-0.984,0.328
	c-0.948,0-1.568-0.036-1.859-0.109c-0.255-0.036-0.419-0.127-0.492-0.273C155.615,5.451,155.561,5.25,155.561,5.031z"/>
</svg>
